<svg width="128" height="26" viewBox="0 0 128 26" fill="none" xmlns="http://www.w3.org/2000/svg">
<path fill-rule="evenodd" clip-rule="evenodd" d="M46.5083 25.5H55.3832V0.5H50.8705V8.29182H46.5083C41.9054 8.29182 39.7394 10.3676 39.7394 14.7298V19.062C39.7394 23.4242 41.9054 25.5 46.5083 25.5ZM50.8705 12.2028V21.589H46.7791C45.0944 21.589 44.252 20.867 44.252 18.8815V14.9103C44.252 12.9248 45.0944 12.2028 46.7791 12.2028H50.8705ZM62.614 25.5H58.1013V14.7298C58.1013 10.3676 60.2674 8.29182 64.8703 8.29182H67.277V12.2028H65.1411C63.4563 12.2028 62.614 12.9248 62.614 14.9103V25.5ZM73.7592 25.5H83.5968V21.5891H74.6618C73.7592 21.5891 73.308 21.1378 73.308 20.2353V19.4832H79.7761C83.3862 19.4832 84.74 18.1294 84.74 15.1209V12.654C84.74 9.64561 83.3862 8.29182 79.7761 8.29182H73.7592C70.1491 8.29182 68.7953 9.64561 68.7953 12.654V21.1378C68.7953 24.1462 70.1491 25.5 73.7592 25.5ZM80.2274 13.5566V14.5193C80.2274 15.4218 79.7761 15.873 78.8736 15.873H73.308V13.5566C73.308 12.654 73.7592 12.2028 74.6618 12.2028H78.8736C79.7761 12.2028 80.2274 12.654 80.2274 13.5566ZM99.1687 25.5H91.4972C87.8871 25.5 86.5333 24.1462 86.5333 21.1378V18.6709C86.5333 15.6625 87.8871 14.3087 91.4972 14.3087H97.9653V13.5566C97.9653 12.654 97.514 12.2028 96.6115 12.2028H87.6765V8.29182H97.514C101.124 8.29182 102.478 9.64561 102.478 12.654V22.1907C102.478 24.5975 101.575 25.5 99.1687 25.5ZM97.9653 20.6865V17.9188H92.3997C91.4972 17.9188 91.0459 18.37 91.0459 19.2726V20.2353C91.0459 21.1378 91.4972 21.5891 92.3997 21.5891H97.0628C97.8149 21.5891 97.9653 21.4386 97.9653 20.6865ZM127.436 25.5H122.923V14.9103C122.923 12.9248 122.081 12.2028 120.396 12.2028H118.411V25.5H113.898V12.2028H110.288C109.536 12.2028 109.386 12.3532 109.386 13.1053V25.5H104.873V11.6011C104.873 9.19434 105.775 8.29182 108.182 8.29182H120.667C125.27 8.29182 127.436 10.3676 127.436 14.7298V25.5Z" fill="#459451"/>
<path fill-rule="evenodd" clip-rule="evenodd" d="M4.51264 25.5H14.5909C16.8472 25.5 17.9753 25.5 18.5394 24.9359C19.1035 24.3718 19.1035 23.2437 19.1035 20.9874V9.64561H8.57401V13.9477H14.1396V20.0848C14.1396 20.6865 14.1396 20.9874 13.9892 21.1378C13.8387 21.2882 13.5379 21.2882 12.9362 21.2882H6.16727C5.50643 21.2882 5.2085 21.2912 5.07417 21.1445C4.9639 21.024 4.9639 20.8026 4.9639 20.3957V6.06558C4.9639 5.4639 4.9639 5.16306 5.11432 5.01264C5.26474 4.86222 5.56558 4.86222 6.16727 4.86222H17.7497V0.5H4.51264C2.25632 0.5 1.12816 0.5 0.56408 1.06408C0 1.62816 0 2.75632 0 5.01264V20.9874C1.22413e-05 23.2437 1.22413e-05 24.3718 0.564091 24.9359C1.12817 25.5 2.25632 25.5 4.51264 25.5ZM36.9458 25.5H32.4331V8.29182H36.9458V25.5ZM36.1937 5.31348H33.1852C32.4331 5.31348 32.2827 5.16306 32.2827 4.41095V1.40253C32.2827 0.650421 32.4331 0.5 33.1852 0.5H36.1937C36.9458 0.5 37.0962 0.650421 37.0962 1.40253V4.41095C37.0962 5.16306 36.9458 5.31348 36.1937 5.31348ZM25.8607 25.5H21.3481V14.7298C21.3481 11.5646 21.3481 9.95555 22.1525 9.13758C22.9842 8.29182 24.676 8.29182 28.117 8.29182H30.5237V12.2028H27.5454C26.8352 12.2028 26.4244 12.2028 26.1867 12.4056C25.8607 12.684 25.8607 13.3442 25.8607 14.9103V25.5Z" fill="#459451"/>
</svg>
